<svg height="1886" width="720" xmlns="http://www.w3.org/2000/svg">
<rect height="1886" fill="#555" width="720"></rect>
<text fill="#7f7" font-family="Courier New" font-size="12" xml:space="preserve">
<tspan x="10" y="26">17 megabytes installed</tspan>
<tspan x="10" y="42"></tspan>
<tspan x="10" y="58">node_modules</tspan>
<tspan x="10" y="74">└─┬ gulp-myth@1.1.0 </tspan>
<tspan x="10" y="90">  ├─┬ gulp-util@3.0.8 </tspan>
<tspan x="10" y="106">  │ ├── array-differ@1.0.0 </tspan>
<tspan x="10" y="122">  │ ├── array-uniq@1.0.3 </tspan>
<tspan x="10" y="138">  │ ├── beeper@1.1.1 </tspan>
<tspan x="10" y="154">  │ ├─┬ chalk@1.1.3 </tspan>
<tspan x="10" y="170">  │ │ ├── ansi-styles@2.2.1 </tspan>
<tspan x="10" y="186">  │ │ ├── escape-string-regexp@1.0.5 </tspan>
<tspan x="10" y="202">  │ │ ├─┬ has-ansi@2.0.0 </tspan>
<tspan x="10" y="218">  │ │ │ └── ansi-regex@2.1.1 </tspan>
<tspan x="10" y="234">  │ │ ├── strip-ansi@3.0.1 </tspan>
<tspan x="10" y="250">  │ │ └── supports-color@2.0.0 </tspan>
<tspan x="10" y="266">  │ ├── dateformat@2.0.0 </tspan>
<tspan x="10" y="282">  │ ├─┬ fancy-log@1.3.0 </tspan>
<tspan x="10" y="298">  │ │ └── time-stamp@1.0.1 </tspan>
<tspan x="10" y="314">  │ ├─┬ gulplog@1.0.0 </tspan>
<tspan x="10" y="330">  │ │ └── glogg@1.0.0 </tspan>
<tspan x="10" y="346">  │ ├─┬ has-gulplog@0.1.0 </tspan>
<tspan x="10" y="362">  │ │ └── sparkles@1.0.0 </tspan>
<tspan x="10" y="378">  │ ├── lodash._reescape@3.0.0 </tspan>
<tspan x="10" y="394">  │ ├── lodash._reevaluate@3.0.0 </tspan>
<tspan x="10" y="410">  │ ├── lodash._reinterpolate@3.0.0 </tspan>
<tspan x="10" y="426">  │ ├─┬ lodash.template@3.6.2 </tspan>
<tspan x="10" y="442">  │ │ ├── lodash._basecopy@3.0.1 </tspan>
<tspan x="10" y="458">  │ │ ├── lodash._basetostring@3.0.1 </tspan>
<tspan x="10" y="474">  │ │ ├── lodash._basevalues@3.0.0 </tspan>
<tspan x="10" y="490">  │ │ ├── lodash._isiterateecall@3.0.9 </tspan>
<tspan x="10" y="506">  │ │ ├─┬ lodash.escape@3.2.0 </tspan>
<tspan x="10" y="522">  │ │ │ └── lodash._root@3.0.1 </tspan>
<tspan x="10" y="538">  │ │ ├─┬ lodash.keys@3.1.2 </tspan>
<tspan x="10" y="554">  │ │ │ ├── lodash._getnative@3.9.1 </tspan>
<tspan x="10" y="570">  │ │ │ ├── lodash.isarguments@3.1.0 </tspan>
<tspan x="10" y="586">  │ │ │ └── lodash.isarray@3.0.4 </tspan>
<tspan x="10" y="602">  │ │ ├── lodash.restparam@3.6.1 </tspan>
<tspan x="10" y="618">  │ │ └── lodash.templatesettings@3.1.1 </tspan>
<tspan x="10" y="634">  │ ├── minimist@1.2.0 </tspan>
<tspan x="10" y="650">  │ ├─┬ multipipe@0.1.2 </tspan>
<tspan x="10" y="666">  │ │ └─┬ duplexer2@0.0.2 </tspan>
<tspan x="10" y="682">  │ │   └─┬ readable-stream@1.1.14 </tspan>
<tspan x="10" y="698">  │ │     ├── isarray@0.0.1 </tspan>
<tspan x="10" y="714">  │ │     └── string_decoder@0.10.31 </tspan>
<tspan x="10" y="730">  │ ├── object-assign@3.0.0 </tspan>
<tspan x="10" y="746">  │ ├── replace-ext@0.0.1 </tspan>
<tspan x="10" y="762">  │ └─┬ vinyl@0.5.3 </tspan>
<tspan x="10" y="778">  │   ├── clone@1.0.2 </tspan>
<tspan x="10" y="794">  │   └── clone-stats@0.0.1 </tspan>
<tspan x="10" y="810">  ├─┬ myth@1.5.0 </tspan>
<tspan x="10" y="826">  │ ├─┬ autoprefixer-core@5.2.1 </tspan>
<tspan x="10" y="842">  │ │ ├── browserslist@0.4.0 </tspan>
<tspan x="10" y="858">  │ │ ├── caniuse-db@1.0.30000660 </tspan>
<tspan x="10" y="874">  │ │ └── num2fraction@1.2.2 </tspan>
<tspan x="10" y="890">  │ ├─┬ clone-component@0.2.2 </tspan>
<tspan x="10" y="906">  │ │ └── component-type@1.2.1 </tspan>
<tspan x="10" y="922">  │ ├── colors@0.6.2 </tspan>
<tspan x="10" y="938">  │ ├─┬ commander@2.9.0 </tspan>
<tspan x="10" y="954">  │ │ └── graceful-readlink@1.0.1 </tspan>
<tspan x="10" y="970">  │ ├── is-browser@2.0.1 </tspan>
<tspan x="10" y="986">  │ ├── node-watch@0.3.5 </tspan>
<tspan x="10" y="1002">  │ ├── pad-component@0.0.1 </tspan>
<tspan x="10" y="1018">  │ ├─┬ postcss@4.1.16 </tspan>
<tspan x="10" y="1034">  │ │ ├── es6-promise@2.3.0 </tspan>
<tspan x="10" y="1050">  │ │ ├── js-base64@2.1.9 </tspan>
<tspan x="10" y="1066">  │ │ └─┬ source-map@0.4.4 </tspan>
<tspan x="10" y="1082">  │ │   └── amdefine@1.0.1 </tspan>
<tspan x="10" y="1098">  │ ├─┬ read-file-stdin@0.2.1 </tspan>
<tspan x="10" y="1114">  │ │ └── gather-stream@1.0.0 </tspan>
<tspan x="10" y="1130">  │ ├─┬ rework@1.0.1 </tspan>
<tspan x="10" y="1146">  │ │ ├── convert-source-map@0.3.5 </tspan>
<tspan x="10" y="1162">  │ │ └─┬ css@2.2.1 </tspan>
<tspan x="10" y="1178">  │ │   ├── source-map@0.1.43 </tspan>
<tspan x="10" y="1194">  │ │   ├─┬ source-map-resolve@0.3.1 </tspan>
<tspan x="10" y="1210">  │ │   │ ├── atob@1.1.3 </tspan>
<tspan x="10" y="1226">  │ │   │ ├── resolve-url@0.2.1 </tspan>
<tspan x="10" y="1242">  │ │   │ └── source-map-url@0.3.0 </tspan>
<tspan x="10" y="1258">  │ │   └── urix@0.1.0 </tspan>
<tspan x="10" y="1274">  │ ├─┬ rework-calc@1.1.0 </tspan>
<tspan x="10" y="1290">  │ │ ├── balanced-match@0.1.0 </tspan>
<tspan x="10" y="1306">  │ │ └── rework-visit@1.0.0 </tspan>
<tspan x="10" y="1322">  │ ├─┬ rework-color-function@1.2.1 </tspan>
<tspan x="10" y="1338">  │ │ ├── balanced-match@0.0.0 </tspan>
<tspan x="10" y="1354">  │ │ └─┬ css-color-function@1.3.0 </tspan>
<tspan x="10" y="1370">  │ │   ├─┬ color@0.11.4 </tspan>
<tspan x="10" y="1386">  │ │   │ ├─┬ color-convert@1.9.0 </tspan>
<tspan x="10" y="1402">  │ │   │ │ └── color-name@1.1.2 </tspan>
<tspan x="10" y="1418">  │ │   │ └── color-string@0.3.0 </tspan>
<tspan x="10" y="1434">  │ │   ├── debug@0.7.4 </tspan>
<tspan x="10" y="1450">  │ │   └── rgb@0.1.0 </tspan>
<tspan x="10" y="1466">  │ ├── rework-custom-media@0.1.1 </tspan>
<tspan x="10" y="1482">  │ ├── rework-font-variant@1.0.1 </tspan>
<tspan x="10" y="1498">  │ ├─┬ rework-hex-alpha@1.0.0 </tspan>
<tspan x="10" y="1514">  │ │ └── rgb@0.0.1 </tspan>
<tspan x="10" y="1530">  │ ├─┬ rework-import@1.2.1 </tspan>
<tspan x="10" y="1546">  │ │ ├── find-file@0.1.4 </tspan>
<tspan x="10" y="1562">  │ │ └── parse-import@0.1.3 </tspan>
<tspan x="10" y="1578">  │ ├── rework-rebeccapurple@1.0.1 </tspan>
<tspan x="10" y="1594">  │ ├── rework-vars@3.1.1 </tspan>
<tspan x="10" y="1610">  │ ├─┬ to-slug-case@0.1.2 </tspan>
<tspan x="10" y="1626">  │ │ └─┬ to-space-case@0.1.2 </tspan>
<tspan x="10" y="1642">  │ │   └── to-no-case@0.1.1 </tspan>
<tspan x="10" y="1658">  │ ├─┬ to-space-case@0.1.3 </tspan>
<tspan x="10" y="1674">  │ │ └── to-no-case@0.1.2 </tspan>
<tspan x="10" y="1690">  │ └── write-file-stdout@0.0.2 </tspan>
<tspan x="10" y="1706">  ├── object-assign@4.1.1 </tspan>
<tspan x="10" y="1722">  └─┬ through2@2.0.3 </tspan>
<tspan x="10" y="1738">    ├─┬ readable-stream@2.2.9 </tspan>
<tspan x="10" y="1754">    │ ├── buffer-shims@1.0.0 </tspan>
<tspan x="10" y="1770">    │ ├── core-util-is@1.0.2 </tspan>
<tspan x="10" y="1786">    │ ├── inherits@2.0.3 </tspan>
<tspan x="10" y="1802">    │ ├── isarray@1.0.0 </tspan>
<tspan x="10" y="1818">    │ ├── process-nextick-args@1.0.7 </tspan>
<tspan x="10" y="1834">    │ ├── string_decoder@1.0.0 </tspan>
<tspan x="10" y="1850">    │ └── util-deprecate@1.0.2 </tspan>
<tspan x="10" y="1866">    └── xtend@4.0.1</tspan>
</text>
</svg>
